<?xml version="1.0" encoding="utf-8"?>
<!-- Generator: Adobe Illustrator 25.1.0, SVG Export Plug-In . SVG Version: 6.00 Build 0)  -->
<svg version="1.1" id="Ebene_1" xmlns="http://www.w3.org/2000/svg" xmlns:xlink="http://www.w3.org/1999/xlink" x="0px" y="0px"
	 viewBox="0 0 128 128" style="enable-background:new 0 0 128 128;" xml:space="preserve">
<path d="M116.7,0H11.3C5.1,0,0,5.1,0,11.3v105.4c0,6.2,5.1,11.3,11.3,11.3h105.4c6.2,0,11.3-5.1,11.3-11.3V11.3
	C128,5.1,122.9,0,116.7,0z M87.9,34.5h-7c-6.9,0-9.1,4.3-9.1,8.7v10.5h15.5l-2.5,16.2h-13v38.5H54.3V69.9H40.1V53.7h14.2V41.4
	c0-14,8.3-21.7,21.1-21.7c6.1,0,12.5,1.1,12.5,1.1V34.5z"/>
</svg>
