<?xml version="1.0" encoding="utf-8"?>
<!-- Generator: Adobe Illustrator 25.1.0, SVG Export Plug-In . SVG Version: 6.00 Build 0)  -->
<svg version="1.1" id="Layer_1" xmlns="http://www.w3.org/2000/svg" xmlns:xlink="http://www.w3.org/1999/xlink" x="0px" y="0px"
	 viewBox="0 0 128 128" style="enable-background:new 0 0 128 128;" xml:space="preserve">
<style type="text/css">
	.st0{fill:#010101;}
</style>
<g>
	<path class="st0" d="M81.7,28.4c-4.6-0.2-6-0.3-17.7-0.3s-13.1,0-17.7,0.3c-11.9,0.5-17.4,6.2-18,18c-0.2,4.6-0.3,6-0.3,17.7
		c0,11.7,0.1,13.1,0.3,17.7c0.5,11.8,6,17.4,18,18c4.6,0.2,6,0.3,17.7,0.3c11.7,0,13.1,0,17.7-0.3c11.9-0.5,17.4-6.2,18-18
		c0.2-4.6,0.3-6,0.3-17.7c0-11.7,0-13.1-0.3-17.7C99.1,34.5,93.6,28.9,81.7,28.4z M64,86.5c-12.4,0-22.5-10.1-22.5-22.5
		c0-12.4,10.1-22.5,22.5-22.5c12.4,0,22.5,10.1,22.5,22.5C86.5,76.4,76.4,86.5,64,86.5z M87.1,44.1c-2.5,0-4.5-2-4.5-4.5
		s2-4.5,4.5-4.5s4.5,2,4.5,4.5C91.6,42.1,89.6,44.1,87.1,44.1z"/>
	<path class="st0" d="M116.7,0H11.3C5.1,0,0,5.1,0,11.3v105.4c0,6.2,5.1,11.3,11.3,11.3h105.4c6.2,0,11.3-5.1,11.3-11.3V11.3
		C128,5.1,122.9,0,116.7,0z M107.5,82.1c-0.7,15.9-9.6,24.7-25.5,25.5c-4.7,0.2-6.2,0.3-18.1,0.3s-13.4-0.1-18.1-0.3
		C30,106.8,21.2,98,20.5,82.1c-0.2-4.7-0.3-6.2-0.3-18.1c0-11.9,0-13.4,0.3-18.1C21.2,30,30,21.2,45.9,20.5
		c4.7-0.2,6.2-0.3,18.1-0.3s13.4,0,18.1,0.3c15.9,0.7,24.7,9.6,25.5,25.5c0.2,4.7,0.3,6.2,0.3,18.1
		C107.8,75.9,107.7,77.4,107.5,82.1z"/>
	<path class="st0" d="M64,49.4c-8.1,0-14.6,6.5-14.6,14.6c0,8.1,6.5,14.6,14.6,14.6c8.1,0,14.6-6.5,14.6-14.6
		C78.6,55.9,72.1,49.4,64,49.4z"/>
</g>
</svg>
