<?xml version="1.0" encoding="utf-8"?>
<!-- Generator: Adobe Illustrator 25.1.0, SVG Export Plug-In . SVG Version: 6.00 Build 0)  -->
<svg version="1.1" id="Layer_1" xmlns="http://www.w3.org/2000/svg" xmlns:xlink="http://www.w3.org/1999/xlink" x="0px" y="0px"
	 viewBox="0 0 128 128" style="enable-background:new 0 0 128 128;" xml:space="preserve">
<path d="M116.7,0H11.3C5.1,0,0,5.1,0,11.3v105.4c0,6.2,5.1,11.3,11.3,11.3h105.4c6.2,0,11.3-5.1,11.3-11.3V11.3
	C128,5.1,122.9,0,116.7,0z M40.7,106.1h-16V47.5h16V106.1z M32.7,40.7c-5.2,0-9.3-4.2-9.3-9.4s4.2-9.4,9.3-9.4s9.3,4.2,9.3,9.4
	S37.8,40.7,32.7,40.7z M104.7,106.1h-16V76.2c0-18-21.3-16.6-21.3,0v29.9h-16V47.5h16v9.4c7.4-13.8,37.3-14.8,37.3,13.2V106.1z"/>
</svg>
