<svg xmlns="http://www.w3.org/2000/svg" width="1524.7" height="497.5" viewBox="0 0 1524.7 497.5"><defs><clipPath id="a" transform="translate(2.5)"><path fill="none" d="M42.3 373.1H8.7c-5.7 0-8.2-2.5-8.2-8.2V252c0-27.6 12.6-46.5 69.2-46.5s69.7 18.9 69.7 46.5v112.9c0 5.7-2.5 8.2-8.2 8.2H96.5c-5.7 0-8.3-2.5-8.3-8.2v-34H50.5v34c0 5.7-2.5 8.2-8.2 8.2zm8.2-83.9h37.7v-29.4c0-6.2-2.7-10.8-18.7-10.8s-19 4.6-19 10.8zM178 373.1c-5.7 0-8.2-2.5-8.2-8.2V217.1c0-5.7 2.5-8.2 8.2-8.2h77.1c38.3 0 56.2 14.8 56.2 46.5v71.2c0 31.7-17.9 46.5-56.2 46.5zm43.7-43.1h27.2c7.3 0 10.7-3.4 10.7-11.2v-55.4c0-7.5-3.4-10.9-10.7-10.9h-27.2zM381 373.1h-33.6c-5.7 0-8.3-2.5-8.3-8.2V252c0-27.6 12.6-46.5 69.3-46.5s69.7 18.9 69.7 46.5v112.9c0 5.7-2.5 8.2-8.3 8.2h-34.7c-5.7 0-8.2-2.5-8.2-8.2v-34h-37.7v34c0 5.7-2.5 8.2-8.2 8.2zm8.2-83.9h37.7v-29.4c0-6.2-2.8-10.8-18.8-10.8s-18.9 4.6-18.9 10.8zm127.5 83.9c-5.7 0-8.2-2.5-8.2-8.2V217.1c0-5.7 2.5-8.2 8.2-8.2h69.9c41.6 0 53.9 18 53.9 44.5v29.2c0 26.4-12.3 44.4-53.9 44.4h-26.3v37.9c0 5.7-2.5 8.2-8.2 8.2zm43.2-87.1h20.5c8.9 0 10.8-5.3 10.8-11.2v-12.1c0-5.9-1.9-11.1-10.8-11.1h-20.5zM705 373.1c-5.7 0-8.3-2.5-8.3-8.2v-112h-33.6c-5.7 0-8.2-2.5-8.2-8.2v-27.6c0-5.7 2.5-8.2 8.2-8.2h120.7c5.7 0 8.2 2.5 8.2 8.2v27.6c0 5.7-2.5 8.2-8.2 8.2h-33.6v112c0 5.7-2.5 8.2-8.2 8.2zm147.6 0H819c-5.7 0-8.2-2.5-8.2-8.2V252c0-27.6 12.5-46.5 69.2-46.5s69.7 18.9 69.7 46.5v112.9c0 5.7-2.5 8.2-8.2 8.2h-34.8c-5.7 0-8.2-2.5-8.2-8.2v-34h-37.7v34c0 5.7-2.5 8.2-8.2 8.2zm8.2-83.9h37.7v-29.4c0-6.2-2.7-10.8-18.7-10.8s-19 4.6-19 10.8zm157.7 83.9c-5.7 0-8.3-2.5-8.3-8.2v-112h-33.5c-5.8 0-8.3-2.5-8.3-8.2v-27.6c0-5.7 2.5-8.2 8.3-8.2h120.6c5.7 0 8.2 2.5 8.2 8.2v27.6c0 5.7-2.5 8.2-8.2 8.2h-33.6v112c0 5.7-2.5 8.2-8.2 8.2zm117.6 0c-5.7 0-8.2-2.5-8.2-8.2V217.1c0-5.7 2.5-8.2 8.2-8.2h36.4c5.7 0 8.2 2.5 8.2 8.2v147.8c0 5.7-2.5 8.2-8.2 8.2zm144.9 3.4c-57.1 0-71.1-18.7-71.1-46.5v-77.8c0-27.8 14-46.7 71.1-46.7s70.8 18.9 70.8 46.7V330c0 27.8-13.7 46.5-70.8 46.5zm0-44c16.7 0 19.2-4.5 19.2-10.7v-61.4c0-5.9-2.5-10.4-19.2-10.4s-19.2 4.5-19.2 10.4v61.4c0 6.2 2.8 10.7 19.2 10.7zm108.1 40.6c-5.7 0-8.2-2.5-8.2-8.2V217.1c0-5.7 2.5-8.2 8.2-8.2h23.8c5.9 0 9.6 1.6 13.4 6.2l44.4 50.6v-48.6c0-5.7 2.5-8.2 8.2-8.2h34.3c5.7 0 8.2 2.5 8.2 8.2v147.8c0 5.7-2.5 8.2-8.2 8.2h-34.3c-5.7 0-8.2-2.5-8.2-8.2v-28.1l-39.1-47.2v75.3c0 5.7-2.5 8.2-8.2 8.2z"/></clipPath></defs><path fill="#fff" d="M59 168.4c-38.6 0-56.5-14.9-56.5-46.8V50.2C2.5 18.3 20.4 3.4 59 3.4h57.4c5.7 0 8.2 2.6 8.2 8.3v27.7c0 5.7-2.5 8.2-8.2 8.2H68.6c-9.6 0-14 3.7-14 11.5v54.8c0 7.7 3.4 11.2 10.6 11.2h22.2V89.3c0-5.7 2.6-8.2 8.3-8.2h35.6c5.7 0 8.2 2.5 8.2 8.2v70.8c0 5.8-2.5 8.3-8.2 8.3zm116.8 0c-5.7 0-8.3-2.5-8.3-8.3V11.7c0-5.7 2.6-8.3 8.3-8.3h106.5c5.7 0 8.3 2.6 8.3 8.3v26.8c0 5.7-2.6 8.2-8.3 8.2H219v17.7h44.7c5.8 0 8.3 2.5 8.3 8.2v24.5c0 5.8-2.5 8.3-8.3 8.3H219v19.7h63.3c5.7 0 8.3 2.5 8.3 8.2v26.8c0 5.8-2.6 8.3-8.3 8.3zm150.1 0c-5.7 0-8.2-2.5-8.2-8.3V11.7c0-5.7 2.5-8.3 8.2-8.3h23.9c6 0 9.6 1.6 13.5 6.2l44.6 50.9V11.7c0-5.7 2.5-8.3 8.2-8.3h34.5c5.7 0 8.2 2.6 8.2 8.3v148.4c0 5.8-2.5 8.3-8.2 8.3h-34.5c-5.7 0-8.2-2.5-8.2-8.3V132l-39.3-47.5v75.6c0 5.8-2.5 8.3-8.2 8.3zm172.9 0c-5.8 0-8.3-2.5-8.3-8.3V11.7c0-5.7 2.5-8.3 8.3-8.3h106.5c5.7 0 8.2 2.6 8.2 8.3v26.8c0 5.7-2.5 8.2-8.2 8.2h-63.4v17.7h44.8c5.7 0 8.2 2.5 8.2 8.2v24.5c0 5.8-2.5 8.3-8.2 8.3h-44.8v19.7h63.4c5.7 0 8.2 2.5 8.2 8.2v26.8c0 5.8-2.5 8.3-8.2 8.3zm150.1 0c-5.7 0-8.3-2.5-8.3-8.3V11.7c0-5.7 2.6-8.3 8.3-8.3h76.4c34.5 0 45.2 15.6 45.2 38.3v10.5c0 12.9-3.2 22-12.8 26.1 16.7 1.9 27.8 14 27.8 33.3v48.5c0 5.8-2.6 8.3-8.3 8.3h-35.6c-5.7 0-8.2-2.5-8.2-8.3v-35c0-6.9-2.3-9.9-8.8-9.9h-32.1v44.9c0 5.8-2.5 8.3-8.3 8.3zM692.5 74h17.2c8 0 10.1-4.6 10.1-10.8v-7.8c0-6.1-2.1-10.7-10.1-10.7h-17.2zM852 168.4h-33.7c-5.7 0-8.3-2.5-8.3-8.3V46.7C810 19 822.7 0 879.6 0s70 19 70 46.7v113.4c0 5.8-2.5 8.3-8.3 8.3h-34.9c-5.7 0-8.2-2.5-8.2-8.3V126h-37.9v34.1c0 5.8-2.5 8.3-8.3 8.3zm8.3-84.3h37.9V54.5c0-6.2-2.8-10.7-18.9-10.7s-19 4.5-19 10.7zm158.4 84.3c-5.8 0-8.3-2.5-8.3-8.3V47.6h-33.7c-5.8 0-8.3-2.5-8.3-8.2V11.7c0-5.7 2.5-8.3 8.3-8.3h121.2c5.7 0 8.2 2.6 8.2 8.3v27.7c0 5.7-2.5 8.2-8.2 8.2h-33.8v112.5c0 5.8-2.5 8.3-8.2 8.3zm118.2 0c-5.7 0-8.3-2.5-8.3-8.3V11.7c0-5.7 2.6-8.3 8.3-8.3h36.5c5.7 0 8.3 2.6 8.3 8.3v148.4c0 5.8-2.6 8.3-8.3 8.3zm145.5 3.4c-57.4 0-71.4-18.8-71.4-46.7V47c0-28 14-47 71.4-47s71.2 19 71.2 47v78.1c0 27.9-13.8 46.7-71.2 46.7zm0-44.2c16.8 0 19.3-4.6 19.3-10.8V55.2c0-5.9-2.5-10.5-19.3-10.5s-19.3 4.6-19.3 10.5v61.6c0 6.2 2.8 10.8 19.3 10.8zm108.6 40.8c-5.7 0-8.3-2.5-8.3-8.3V11.7c0-5.7 2.6-8.3 8.3-8.3h23.9c5.9 0 9.6 1.6 13.5 6.2l44.5 50.9V11.7c0-5.7 2.6-8.3 8.3-8.3h34.4c5.8 0 8.3 2.6 8.3 8.3v148.4c0 5.8-2.5 8.3-8.3 8.3h-34.4c-5.7 0-8.3-2.5-8.3-8.3V132l-39.2-47.5v75.6c0 5.8-2.5 8.3-8.3 8.3z"/><g clip-path="url(#a)"><path fill="#fff" d="M0 184.8h1524.7v271.87H0z"/></g><path fill="#fff" d="M499.8 496.1c-2.4 0-3.4-1.1-3.4-3.5v-16.4c0-14.8 6.2-18.2 15-20.9l12.8-4c2-.6 2.6-1.4 2.6-3.5s-.7-2.5-2.6-2.5h-20.8c-2.3 0-3.4-1-3.4-3.4v-11.2c0-2.4 1.1-3.4 3.4-3.4h28.2c10.9 0 16.9 5.5 16.9 15.8v9c0 9.7-5.7 14.1-15 16.9l-13 4.1c-1.9.6-2.4.8-2.4 2.9v2h27.2c2.4 0 3.4 1.1 3.4 3.5v11.1c0 2.4-1 3.5-3.4 3.5zm88.6 1.4c-23.5 0-29.3-7.8-29.3-19.5v-32.6c0-11.6 5.8-19.6 29.3-19.6s29.1 8 29.1 19.6V478c0 11.7-5.6 19.5-29.1 19.5zm0-18.4c6.6 0 7.6-1.9 7.6-4.5v-25.7c0-2.5-1-4.4-7.6-4.4s-7.7 1.9-7.7 4.4v25.7c0 2.6 1.2 4.5 7.7 4.5zm42.7 17c-2.4 0-3.5-1.1-3.5-3.5v-11.5c0-2.4 1.1-3.5 3.5-3.5h10.7v-31.9H633c-2.4 0-3.4-1-3.4-3.4v-11.6c0-2.4 1-3.4 3.4-3.4h27.7c2.4 0 3.4 1 3.4 3.4v46.9h9.2c2.4 0 3.5 1.1 3.5 3.5v11.5c0 2.4-1.1 3.5-3.5 3.5zm112.8-15.2c0 9.9-6.4 16.6-29.4 16.6s-29.5-6.7-29.5-16.6v-9.3c0-9 4.4-13.6 10.1-14.8-4.2-1.8-5.6-5.4-5.6-10.3v-5.6c0-9.3 5.9-15.1 25.1-15.1s24.8 5.8 24.8 15.1v5.6c0 4.9-1.4 8.5-5.6 10.3 5.7 1.2 10.1 5.8 10.1 14.8zm-29.4-.1c7 0 8.3-1.5 8.3-3.5v-5.1c0-1.9-1.3-3.4-8.3-3.4s-8.4 1.5-8.4 3.4v5.1c0 2 1.5 3.5 8.4 3.5zm0-27c5.4 0 5.9-1.6 5.9-3.6V446c0-1.9-.5-3.4-5.9-3.4s-6 1.5-6 3.4v4.2c0 2 .6 3.6 6 3.6zm37.7 14.3v-12.8c0-2.4 1.1-3.5 3.5-3.5h25.6c2.4 0 3.4 1 3.4 3.5v12.8c0 2.5-1 3.4-3.4 3.4h-25.6c-2.4 0-3.5-.9-3.5-3.4zm43.6 28c-2.4 0-3.4-1.1-3.4-3.5v-16.4c0-14.8 6.2-18.2 15-20.9l12.8-4c2-.6 2.5-1.4 2.5-3.5s-.6-2.5-2.5-2.5h-20.8c-2.4 0-3.4-1-3.4-3.4v-11.2c0-2.4 1-3.4 3.4-3.4h28.2c10.9 0 16.8 5.5 16.8 15.8v9c0 9.7-5.6 14.1-14.9 16.9l-13 4.1c-1.9.6-2.4.8-2.4 2.9v2h27.2c2.4 0 3.4 1.1 3.4 3.5v11.1c0 2.4-1 3.5-3.4 3.5zm88.6 1.4c-23.5 0-29.3-7.8-29.3-19.5v-32.6c0-11.6 5.8-19.6 29.3-19.6s29.1 8 29.1 19.6V478c0 11.7-5.6 19.5-29.1 19.5zm0-18.4c6.6 0 7.6-1.9 7.6-4.5v-25.7c0-2.5-1-4.4-7.6-4.4s-7.7 1.9-7.7 4.4v25.7c0 2.6 1.2 4.5 7.7 4.5zm41.9 17c-2.4 0-3.4-1.1-3.4-3.5v-16.4c0-14.8 6.2-18.2 15-20.9l12.8-4c2-.6 2.6-1.4 2.6-3.5s-.7-2.5-2.6-2.5h-20.8c-2.4 0-3.4-1-3.4-3.4v-11.2c0-2.4 1-3.4 3.4-3.4h28.2c10.9 0 16.8 5.5 16.8 15.8v9c0 9.7-5.6 14.1-14.9 16.9l-13 4.1c-1.9.6-2.4.8-2.4 2.9v2h27.2c2.4 0 3.4 1.1 3.4 3.5v11.1c0 2.4-1 3.5-3.4 3.5zm61.8 0c-2.4 0-3.4-1.1-3.4-3.5v-11.5c0-2.4 1-3.5 3.4-3.5h10.7v-31.9H990c-2.4 0-3.4-1-3.4-3.4v-11.6c0-2.4 1-3.4 3.4-3.4h27.7c2.4 0 3.5 1 3.5 3.4v46.9h9.2c2.3 0 3.4 1.1 3.4 3.5v11.5c0 2.4-1.1 3.5-3.4 3.5z"/></svg>