<?xml version="1.0" encoding="utf-8"?>
<!-- Generator: Adobe Illustrator 25.1.0, SVG Export Plug-In . SVG Version: 6.00 Build 0)  -->
<svg version="1.1" id="Logo" xmlns="http://www.w3.org/2000/svg" xmlns:xlink="http://www.w3.org/1999/xlink" x="0px" y="0px"
	 viewBox="0 0 128 128" style="enable-background:new 0 0 128 128;" xml:space="preserve">
<style type="text/css">
	.st0{fill:none;}
</style>
<line class="st0" x1="204.13" y1="-35.02" x2="203.87" y2="-35.02"/>
<path d="M116.69,0H11.31C5.06,0,0,5.06,0,11.31v105.38C0,122.94,5.06,128,11.31,128h105.38c6.25,0,11.31-5.06,11.31-11.31V11.31
	C128,5.06,122.94,0,116.69,0z M99.83,46.68c1.11,24.51-17.17,51.84-49.54,51.84c-9.84,0-19-2.89-26.71-7.83
	c9.25,1.09,18.48-1.48,25.8-7.21c-7.62-0.14-14.06-5.18-16.29-12.11c2.74,0.52,5.43,0.37,7.88-0.3
	c-8.38-1.69-14.17-9.24-13.98-17.31c2.35,1.3,5.04,2.09,7.89,2.18c-7.76-5.19-9.96-15.44-5.39-23.27
	c8.59,10.55,21.44,17.48,35.92,18.21c-2.54-10.9,5.73-21.4,16.98-21.4c5.01,0,9.54,2.12,12.72,5.5c3.97-0.78,7.71-2.23,11.07-4.23
	c-1.3,4.07-4.07,7.48-7.66,9.64c3.53-0.42,6.89-1.36,10.01-2.75C106.19,41.15,103.25,44.22,99.83,46.68z"/>
</svg>
